<?xml version="1.0" encoding="UTF-8" standalone="no"?>
<!-- Created with Inkscape (http://www.inkscape.org/) -->

<svg
   width="22.902517mm"
   height="22.903534mm"
   viewBox="0 0 22.902517 22.903534"
   version="1.1"
   id="svg5"
   xml:space="preserve"
   xmlns="http://www.w3.org/2000/svg"
   xmlns:svg="http://www.w3.org/2000/svg"><defs
     id="defs2" /><g
     id="layer1"
     transform="translate(37.464143,-32.785079)"><g
       id="g815"
       transform="translate(49.3195,-48.005865)"><rect
         style="fill:#2ec27e;fill-opacity:1;stroke-width:0.499999;stroke-linejoin:round"
         id="rect442"
         width="45.596809"
         height="10.897591"
         x="-122.69698"
         y="58.947559"
         ry="5.4487953" /><path
         style="fill:none;fill-opacity:1;stroke:#26a269;stroke-width:0.499999;stroke-linejoin:round"
         d="M -87.642443,58.947576 V 69.845165"
         id="path444" /><path
         style="fill:none;fill-opacity:1;stroke:#ffffff;stroke-width:0.600001;stroke-linecap:round;stroke-linejoin:round;stroke-dasharray:none;stroke-opacity:1"
         d="m -80.655121,63.875116 -1.7162,1.737813 -1.716199,-1.737813"
         id="path446" /><text
         xml:space="preserve"
         style="font-size:4.2382px;font-family:Cantarell;-inkscape-font-specification:Cantarell;fill:none;fill-opacity:1;stroke:#1a5fb4;stroke-width:0.499998;stroke-linejoin:round"
         x="-112.50356"
         y="65.941177"
         id="text450"><tspan
           id="tspan448"
           style="font-style:normal;font-variant:normal;font-weight:bold;font-stretch:normal;font-family:'Atkinson Hyperlegible';-inkscape-font-specification:'Atkinson Hyperlegible Bold';fill:#ffffff;stroke:none;stroke-width:0.5"
           x="-112.50356"
           y="65.941177">Download</tspan></text><path
         d="m -115.32671,62.809149 c -0.10927,0 -0.1984,0.08913 -0.1984,0.198405 v 1.703448 l -0.45492,-0.454924 c -0.0372,-0.0372 -0.0876,-0.05811 -0.14028,-0.05811 -0.0527,0 -0.10307,0.02093 -0.14027,0.05811 -0.0775,0.07751 -0.0775,0.203054 0,0.280552 l 0.79359,0.793598 c 0.0775,0.07751 0.20306,0.07751 0.28056,0 l 0.79359,-0.793598 c 0.0775,-0.0775 0.0775,-0.203048 0,-0.280552 -0.0775,-0.0775 -0.20304,-0.0775 -0.28053,0 l -0.45493,0.454924 v -1.703448 c 0,-0.109276 -0.0891,-0.198405 -0.19841,-0.198405 z m -1.19041,2.777606 v 0.396803 h 2.38082 v -0.396803 z m 0,0"
         fill="#2e3436"
         id="path452"
         style="fill:#ffffff;stroke-width:0.264583" /><path
         style="fill:none;fill-opacity:1;stroke:#ffffff;stroke-width:0.600001;stroke-linecap:round;stroke-linejoin:round;stroke-dasharray:none;stroke-opacity:1"
         d="m -94.768995,96.879239 1.737821,1.716198 -1.737822,1.716193"
         id="path21193" /></g><path
       id="path2321"
       style="color:#000000;fill:#ffffff;stroke-width:4.46;stroke-linecap:round;stroke-linejoin:round;-inkscape-stroke:none"
       d="m -35.234542,32.785079 a 2.23,2.23 0 0 0 -1.576131,0.654224 2.23,2.23 0 0 0 0,3.152262 l 7.644495,7.645011 -7.644495,7.644495 a 2.23,2.23 0 0 0 0,3.154329 2.23,2.23 0 0 0 3.152262,0 l 7.645012,-7.645528 7.644494,7.645528 a 2.23,2.23 0 0 0 3.153813,0 2.23,2.23 0 0 0 0,-3.154329 l -7.645011,-7.644495 7.645011,-7.645011 a 2.23,2.23 0 0 0 0,-3.152262 2.23,2.23 0 0 0 -1.576131,-0.654224 2.23,2.23 0 0 0 -1.577682,0.654224 l -7.644494,7.644494 -7.645012,-7.644494 a 2.23,2.23 0 0 0 -1.576131,-0.654224 z" /></g></svg>
