<?xml version="1.0" encoding="UTF-8" standalone="no"?>
<!-- Created with Inkscape (http://www.inkscape.org/) -->

<svg
   width="2.3808155mm"
   height="3.174408mm"
   viewBox="0 0 2.3808155 3.174408"
   version="1.1"
   id="svg5"
   xml:space="preserve"
   xmlns="http://www.w3.org/2000/svg"
   xmlns:svg="http://www.w3.org/2000/svg"><defs
     id="defs2" /><g
     id="layer1"
     transform="translate(-20.717553,-77.274626)"><g
       id="g470"
       transform="translate(-3.5812492)"><g
         id="g13575"
         transform="matrix(0.85975477,0,0,0.85975477,-172.04753,67.708787)"
         style="stroke-width:1.16312"><path
           d="m 229.7594,11.126242 c -0.1271,0 -0.23076,0.103668 -0.23076,0.23077 v 1.981318 l -0.52913,-0.529132 c -0.0433,-0.04327 -0.10187,-0.06759 -0.16316,-0.06759 -0.0613,0 -0.11989,0.02434 -0.16316,0.06759 -0.0901,0.09015 -0.0901,0.236176 0,0.326316 l 0.92305,0.923052 c 0.0901,0.09015 0.23618,0.09015 0.32632,0 l 0.92305,-0.923052 c 0.0901,-0.09014 0.0901,-0.236169 0,-0.326316 -0.0901,-0.09014 -0.23617,-0.09014 -0.3263,0 l -0.52914,0.529132 v -1.981318 c 0,-0.127102 -0.10367,-0.23077 -0.23077,-0.23077 z m -1.38459,3.230696 v 0.461531 h 2.76918 v -0.461531 z m 0,0"
           fill="#ffffff"
           id="path13195"
           style="fill:#ffffff;stroke-width:0.307742" /></g></g></g></svg>
