<?xml version="1.0" encoding="UTF-8" standalone="no"?>
<!-- Created with Inkscape (http://www.inkscape.org/) -->

<svg
   width="4.6113739mm"
   height="3.9153309mm"
   viewBox="0 0 4.6113739 3.9153309"
   version="1.1"
   id="svg5"
   xml:space="preserve"
   xmlns="http://www.w3.org/2000/svg"
   xmlns:svg="http://www.w3.org/2000/svg"><defs
     id="defs2" /><g
     id="layer1"
     transform="translate(92.180681,-22.646163)"><path
       d="m -77.239669,16.048678 c -1.228452,0 -2.23035,1.001978 -2.23035,2.230451 V 37.42908 l -5.114181,-5.1142 c -0.4185,-0.41822 -0.9846,-0.65328 -1.57698,-0.65328 -0.59248,0 -1.15877,0.23526 -1.57699,0.65328 -0.87084,0.87132 -0.87084,2.2827 0,3.15393 l 8.921521,8.92153 c 0.870837,0.87132 2.282735,0.87132 3.153968,0 l 8.921512,-8.92153 c 0.870837,-0.87123 0.870837,-2.28264 0,-3.15393 -0.870837,-0.87123 -2.282641,-0.87123 -3.15377,0 l -5.114277,5.1142 V 18.279129 c 0,-1.228473 -1.002001,-2.230451 -2.230453,-2.230451 z M -90.62209,47.27418 V 51.735 h 26.764839 v -4.46082 z m 0,0"
       fill="#2e3436"
       id="path452-3"
       style="fill:#ffffff;stroke-width:0.264583" /><g
       id="g2221"
       transform="translate(-2.3665204)"
       style="fill:#ffffff;fill-opacity:1"><path
         d="m -86.109929,24.444828 c -0.33191,0 -0.604762,0.272852 -0.604762,0.604762 v 0.302381 h -0.302381 v 1.209524 h 1.814286 v -1.209524 h -0.302381 V 25.04959 c 0,-0.33191 -0.272852,-0.604762 -0.604762,-0.604762 z m 0,0.302381 c 0.170089,0 0.302381,0.132292 0.302381,0.302381 v 0.302381 H -86.41231 V 25.04959 c 0,-0.170089 0.132292,-0.302381 0.302381,-0.302381 z m 0,0"
         id="path615"
         style="fill:#ffffff;fill-opacity:1;stroke-width:0.264583" /><path
         id="path630-3"
         style="fill:#ffffff;fill-opacity:1;stroke-width:0.264583"
         d="m -89.020406,22.646163 c -0.435115,0 -0.79375,0.358635 -0.79375,0.79375 v 2.116667 c 0,0.435113 0.358635,0.79375 0.79375,0.79375 h 1.702222 v -0.529167 h -1.702222 c -0.148828,0 -0.264583,-0.114723 -0.264583,-0.264583 v -1.852084 h 1.852083 1.058333 c 0.148828,0 0.264584,0.115756 0.264584,0.264584 v 0.175699 h 5.16e-4 c 0.197091,0 0.379815,0.06334 0.52865,0.171049 V 23.96908 c 0,-0.435116 -0.358634,-0.79375 -0.79375,-0.79375 h -0.948779 l -0.451652,-0.451652 c -0.04961,-0.04961 -0.116789,-0.07751 -0.187069,-0.07751 z m 0,0.529167 h 0.948779 l 0.264584,0.264583 h -1.477946 c 0,-0.148828 0.115755,-0.264583 0.264583,-0.264583 z m 2.910417,1.87327 v 0.0021 h 0.0026 v -0.0021 h -0.0021 z" /></g></g></svg>
