<?xml version="1.0" encoding="UTF-8" standalone="no"?>
<!-- Created with Inkscape (http://www.inkscape.org/) -->

<svg
   width="4.2900696mm"
   height="3.7518044mm"
   viewBox="0 0 4.2900696 3.7518044"
   version="1.1"
   id="svg5"
   xml:space="preserve"
   xmlns="http://www.w3.org/2000/svg"
   xmlns:svg="http://www.w3.org/2000/svg"><defs
     id="defs2" /><g
     id="layer1"
     transform="translate(87.022265,-22.80969)"><path
       d="m -77.239669,16.048678 c -1.228452,0 -2.23035,1.001978 -2.23035,2.230451 V 37.42908 l -5.114181,-5.1142 c -0.4185,-0.41822 -0.9846,-0.65328 -1.57698,-0.65328 -0.59248,0 -1.15877,0.23526 -1.57699,0.65328 -0.87084,0.87132 -0.87084,2.2827 0,3.15393 l 8.921521,8.92153 c 0.870837,0.87132 2.282735,0.87132 3.153968,0 l 8.921512,-8.92153 c 0.870837,-0.87123 0.870837,-2.28264 0,-3.15393 -0.870837,-0.87123 -2.282641,-0.87123 -3.15377,0 l -5.114277,5.1142 V 18.279129 c 0,-1.228473 -1.002001,-2.230451 -2.230453,-2.230451 z M -90.62209,47.27418 V 51.735 h 26.764839 v -4.46082 z m 0,0"
       fill="#2e3436"
       id="path452-3"
       style="fill:#ffffff;stroke-width:0.264583" /><g
       id="g18062"
       style="fill:#ffffff;fill-opacity:1;stroke:#ffffff;stroke-width:2.08152;stroke-opacity:1"
       transform="matrix(0.48041938,0,0,0.48041938,-38.104163,16.01418)"><path
         style="fill:#ffffff;fill-opacity:1;stroke:none;stroke-width:0.550733;stroke-opacity:1"
         d="m -100.35948,14.144956 c -0.80268,0 -1.46427,0.661589 -1.46427,1.46427 v 4.880896 c 0,0.802678 0.66159,1.464269 1.46427,1.464269 h 6.001314 c 0.802678,0 1.46427,-0.661591 1.46427,-1.464269 v -4.880896 c 0,-0.802681 -0.661592,-1.46427 -1.46427,-1.46427 z m 0,0.976178 h 6.001314 c 0.278364,0 0.488089,0.209728 0.488089,0.488091 v 4.392808 c 0,0.278363 -0.209725,0.488089 -0.488089,0.488089 h -6.001314 c -0.27074,0 -0.48809,-0.217352 -0.48809,-0.488089 v -4.392808 c 0,-0.270739 0.21735,-0.488091 0.48809,-0.488091 z"
         id="path12484" /><path
         style="fill:#ffffff;fill-opacity:1;stroke:#ffffff;stroke-width:0.541193;stroke-linecap:round;stroke-linejoin:round;stroke-dasharray:none;stroke-opacity:1"
         d="m -97.358821,15.121134 v 5.368988"
         id="path12924" /><path
         d="m -99.067716,16.942192 c -0.301349,0 -0.549077,0.247728 -0.549077,0.549077 v 0.274538 h -0.274536 v 1.098155 h 1.647228 v -1.098155 h -0.274538 v -0.274538 c 0,-0.301349 -0.247729,-0.549077 -0.549077,-0.549077 z m 0,0.274538 c 0.154427,0 0.274538,0.120111 0.274538,0.274539 v 0.274538 h -0.549077 v -0.274538 c 0,-0.154428 0.120111,-0.274539 0.274539,-0.274539 z m 0,0"
         id="path615-2"
         style="fill:#ffffff;fill-opacity:1;stroke:none;stroke-width:0.550733;stroke-opacity:1" /><path
         id="path17194"
         style="fill:#ffffff;fill-opacity:1;stroke:none;stroke-width:0.550733;stroke-opacity:1"
         d="m -95.599526,17.074861 c -0.02619,0 -0.05202,0.0086 -0.07376,0.02336 l -0.88508,0.632259 c -0.05681,0.04101 -0.07042,0.119788 -0.02991,0.176606 0.02421,0.0336 0.06225,0.05335 0.103257,0.05285 v 0.506461 0.379438 h 0.379436 0.253232 v -0.754366 h 0.379437 v 0.754366 h 0.379436 0.379438 v -0.379438 -0.506461 c 0.04101,4.78e-4 0.07904,-0.01926 0.103256,-0.05285 0.04051,-0.05681 0.0269,-0.1356 -0.02991,-0.176606 l -0.885076,-0.632264 c -0.02173,-0.01483 -0.04758,-0.02336 -0.07376,-0.02336 z" /></g></g></svg>
