<?xml version="1.0" encoding="UTF-8" standalone="no"?>
<!-- Created with Inkscape (http://www.inkscape.org/) -->

<svg
   width="15.487888mm"
   height="17.435928mm"
   viewBox="0 0 15.487888 17.435928"
   version="1.1"
   id="svg5"
   xml:space="preserve"
   xmlns="http://www.w3.org/2000/svg"
   xmlns:svg="http://www.w3.org/2000/svg"><defs
     id="defs2" /><g
     id="layer1"
     transform="translate(64.201364,-39.639331)"><g
       id="g456"
       transform="matrix(0.85975477,0,0,0.85975477,-267.96461,67.708787)"
       style="stroke-width:1.16312"><path
         id="path4782"
         style="color:#000000;fill:#ffffff;stroke-width:1.16312;stroke-linecap:round;stroke-linejoin:round;-inkscape-stroke:none"
         d="m 246.00921,-32.64821 a 1.2876425,1.2876425 0 0 0 -0.64028,0.170364 l -7.72034,4.426752 a 1.2876425,1.2876425 0 0 0 -0.0531,0.03789 1.2876425,1.2876425 0 0 0 -0.0982,0.06952 1.2876425,1.2876425 0 0 0 -0.0937,0.08115 1.2876425,1.2876425 0 0 0 -0.0827,0.08652 1.2876425,1.2876425 0 0 0 -0.0773,0.09846 1.2876425,1.2876425 0 0 0 -0.0644,0.09965 1.2876425,1.2876425 0 0 0 -0.0579,0.112481 1.2876425,1.2876425 0 0 0 -0.0439,0.109796 1.2876425,1.2876425 0 0 0 -0.0355,0.120836 1.2876425,1.2876425 0 0 0 -0.0224,0.115465 1.2876425,1.2876425 0 0 0 -0.0119,0.125907 1.2876425,1.2876425 0 0 0 -0.006,0.05937 v 8.855295 a 1.2876425,1.2876425 0 0 0 0.64654,1.117056 l 7.72034,4.427648 a 1.2876425,1.2876425 0 0 0 0.0501,0.02268 1.2876425,1.2876425 0 0 0 0.11666,0.05281 1.2876425,1.2876425 0 0 0 0.1086,0.03789 1.2876425,1.2876425 0 0 0 0.12829,0.03073 1.2876425,1.2876425 0 0 0 0.10891,0.01581 1.2876425,1.2876425 0 0 0 0.13425,0.006 1.2876425,1.2876425 0 0 0 0.10831,-0.0048 1.2876425,1.2876425 0 0 0 0.13546,-0.01999 1.2876425,1.2876425 0 0 0 0.10383,-0.02506 1.2876425,1.2876425 0 0 0 0.12769,-0.04416 1.2876425,1.2876425 0 0 0 0.10025,-0.04565 1.2876425,1.2876425 0 0 0 0.0582,-0.02625 l 7.71914,-4.427648 a 1.2876425,1.2876425 0 0 0 0.64774,-1.117056 v -8.855295 a 1.2876425,1.2876425 0 0 0 -0.002,-0.02506 1.2876425,1.2876425 0 0 0 -0.0188,-0.196917 1.2876425,1.2876425 0 0 0 -0.01,-0.04744 1.2876425,1.2876425 0 0 0 -0.0561,-0.191248 1.2876425,1.2876425 0 0 0 -0.0179,-0.04237 1.2876425,1.2876425 0 0 0 -0.0925,-0.179612 1.2876425,1.2876425 0 0 0 -0.023,-0.03371 1.2876425,1.2876425 0 0 0 -0.12978,-0.164993 1.2876425,1.2876425 0 0 0 -0.0197,-0.01939 1.2876425,1.2876425 0 0 0 -0.16171,-0.140229 1.2876425,1.2876425 0 0 0 -0.0173,-0.01253 1.2876425,1.2876425 0 0 0 -0.0991,-0.06355 l -7.71914,-4.426753 a 1.2876425,1.2876425 0 0 0 -0.64028,-0.170363 z m 4.9e-4,2.770562 5.13118,2.943312 -1.68453,0.966385 -3.44784,1.977225 -5.13118,-2.94361 z m 6.43173,5.165788 v 5.887519 l -5.1452,2.951367 v -5.886922 l 3.87299,-2.222178 z m -12.86465,8.94e-4 5.14431,2.951069 v 5.886028 l -5.14421,-2.950472 z" /></g></g></svg>
