<?xml version="1.0" encoding="UTF-8" standalone="no"?>
<!-- Created with Inkscape (http://www.inkscape.org/) -->

<svg
   width="209.99998mm"
   height="210mm"
   viewBox="0 0 209.99998 210"
   version="1.1"
   id="svg5"
   xml:space="preserve"
   inkscape:version="1.2.2 (b0a8486541, 2022-12-01)"
   sodipodi:docname="shard.svg"
   xmlns:inkscape="http://www.inkscape.org/namespaces/inkscape"
   xmlns:sodipodi="http://sodipodi.sourceforge.net/DTD/sodipodi-0.dtd"
   xmlns:xlink="http://www.w3.org/1999/xlink"
   xmlns="http://www.w3.org/2000/svg"
   xmlns:svg="http://www.w3.org/2000/svg"><sodipodi:namedview
     id="namedview7"
     pagecolor="#505050"
     bordercolor="#ffffff"
     borderopacity="1"
     inkscape:showpageshadow="0"
     inkscape:pageopacity="0"
     inkscape:pagecheckerboard="1"
     inkscape:deskcolor="#505050"
     inkscape:document-units="mm"
     showgrid="false"
     inkscape:zoom="9.6289755"
     inkscape:cx="-212.43174"
     inkscape:cy="71.191374"
     inkscape:window-width="1920"
     inkscape:window-height="1039"
     inkscape:window-x="0"
     inkscape:window-y="0"
     inkscape:window-maximized="1"
     inkscape:current-layer="layer1"
     showguides="false" /><defs
     id="defs2"><linearGradient
       inkscape:collect="always"
       id="linearGradient3497"><stop
         style="stop-color:#282828;stop-opacity:1;"
         offset="0"
         id="stop3493" /><stop
         style="stop-color:#202020;stop-opacity:1;"
         offset="1"
         id="stop3495" /></linearGradient><radialGradient
       inkscape:collect="always"
       xlink:href="#linearGradient3497"
       id="radialGradient3499"
       cx="-117.24994"
       cy="370.16211"
       fx="-117.24994"
       fy="370.16211"
       r="105"
       gradientUnits="userSpaceOnUse" /></defs><g
     inkscape:label="Layer 1"
     inkscape:groupmode="layer"
     id="layer1"
     transform="translate(222.24993,-265.1621)"><rect
       style="opacity:1;fill:url(#radialGradient3499);fill-opacity:1;stroke:none;stroke-width:0.499999;stroke-linecap:round;stroke-linejoin:round;stroke-opacity:1"
       id="rect766"
       width="210"
       height="210"
       x="-222.24994"
       y="265.16211" /><g
       id="g3105"
       transform="matrix(1.0018313,0,0,1.0018313,16.701213,6.0484992)"
       style="stroke-width:0.998172"><rect
         style="fill:#33d17a;fill-opacity:0.261261;stroke:none;stroke-width:0.298393;stroke-linecap:round;stroke-linejoin:round"
         id="rect1980"
         width="19.066065"
         height="19.066065"
         x="-389.66528"
         y="577.58417"
         transform="matrix(0.93713806,0.34895882,0.34895881,0.93713806,0,0)" /><path
         style="fill:#33d17a;fill-opacity:0.261261;stroke:none;stroke-width:0.259525;stroke-linecap:round;stroke-linejoin:round"
         d="m -163.61708,405.29895 13.60186,13.60187 4.26567,-6.94862"
         id="path2708" /><path
         style="fill:#071d10;fill-opacity:0.261261;stroke:none;stroke-width:0.259525;stroke-linecap:round;stroke-linejoin:round"
         d="m -156.96382,423.16648 6.9486,-4.26566 10.91894,10.91893 z"
         id="path2714" /><path
         style="fill:#33d17a;fill-opacity:0.261261;stroke:none;stroke-width:0.259525;stroke-linecap:round;stroke-linejoin:round"
         d="m -163.61708,405.29895 13.60186,13.60187 4.26567,-6.94862"
         id="path3410" /></g><g
       id="g3100"
       transform="rotate(-15,-109.98466,312.31887)"><rect
         style="fill:#33d17a;fill-opacity:0.261261;stroke:none;stroke-width:0.260001;stroke-linecap:round;stroke-linejoin:round"
         id="rect2770"
         width="10.548152"
         height="10.548152"
         x="-270.51773"
         y="309.58633"
         transform="rotate(-30)" /><rect
         style="fill:#57e389;fill-opacity:0.261261;stroke:none;stroke-width:0.26;stroke-linecap:round;stroke-linejoin:round"
         id="rect2772"
         width="5.0397959"
         height="5.0397959"
         x="-267.76355"
         y="312.34055"
         transform="rotate(-30)" /><path
         style="fill:#33d17a;fill-opacity:0.261261;stroke:none;stroke-width:0.26;stroke-linecap:round;stroke-linejoin:round"
         d="m -75.719791,404.37662 -3.762279,-1.0081 9.13497,-5.27407 -1.0081,3.76228 z"
         id="path2828" /><path
         style="fill:#33d17a;fill-opacity:0.261261;stroke:none;stroke-width:0.26;stroke-linecap:round;stroke-linejoin:round"
         d="m -75.719791,404.37662 -3.762279,-1.0081 9.13497,-5.27407 -1.0081,3.76228 z"
         id="path3037" /><path
         style="fill:#071d10;fill-opacity:0.262745;stroke:none;stroke-width:0.26;stroke-linecap:round;stroke-linejoin:round"
         d="m -74.207999,412.5035 1.008106,-3.76228 4.364591,-2.51989 3.762273,1.00808 z"
         id="path3093" /></g><g
       id="g3391"
       transform="matrix(0.11627002,0.43392558,-0.43392558,0.11627002,4.9416756,379.66606)"
       style="stroke-width:2.22602"><path
         sodipodi:type="star"
         style="fill:#33d17a;fill-opacity:0.262745;stroke:none;stroke-width:0.578764;stroke-linecap:round;stroke-linejoin:round"
         id="path3159"
         inkscape:flatsided="true"
         sodipodi:sides="6"
         sodipodi:cx="17.719566"
         sodipodi:cy="422.8085"
         sodipodi:r1="18.502127"
         sodipodi:r2="16.023312"
         sodipodi:arg1="0.52359878"
         sodipodi:arg2="1.0471976"
         inkscape:rounded="0"
         inkscape:randomized="0"
         d="m 33.742878,432.05957 -16.023312,9.25106 -16.0233114,-9.25106 0,-18.50213 16.0233114,-9.25106 16.023312,9.25106 z"
         inkscape:transform-center-y="-5.3267214e-06"
         transform="translate(-52.16858,10.190364)" /><path
         sodipodi:type="star"
         style="fill:#33d17a;fill-opacity:0.262745;stroke:none;stroke-width:1.16036;stroke-linecap:round;stroke-linejoin:round"
         id="path3163"
         inkscape:flatsided="true"
         sodipodi:sides="6"
         sodipodi:cx="17.719566"
         sodipodi:cy="422.8085"
         sodipodi:r1="18.502127"
         sodipodi:r2="16.023312"
         sodipodi:arg1="0.52359878"
         sodipodi:arg2="1.0471976"
         inkscape:rounded="0"
         inkscape:randomized="0"
         d="m 33.742878,432.05957 -16.023312,9.25106 -16.0233114,-9.25106 0,-18.50213 16.0233114,-9.25106 16.023312,9.25106 z"
         inkscape:transform-center-y="-3.7801643e-06"
         transform="matrix(0.49878022,0,0,0.49878022,-43.287183,222.11035)" /><path
         style="fill:#33d17a;fill-opacity:0.262745;stroke:none;stroke-width:0.578764;stroke-linecap:round;stroke-linejoin:round"
         d="m -50.472323,423.7478 8.031199,4.63682 7.99211,-4.61425 v -9.27362 z"
         id="path3165" /><path
         style="fill:#071d10;fill-opacity:0.262745;stroke:none;stroke-width:0.578764;stroke-linecap:round;stroke-linejoin:round"
         d="m -34.449014,451.50098 v -9.27362 l 7.992111,-4.61426 8.031201,4.63682 z"
         id="path3167" /><path
         style="fill:#33d17a;fill-opacity:0.262745;stroke:none;stroke-width:0.578764;stroke-linecap:round;stroke-linejoin:round"
         d="m -50.472323,423.7478 8.031199,4.63682 7.99211,-4.61425 v -9.27362 z"
         id="path3384" /></g><g
       id="g3408"
       transform="matrix(0.50312449,0,0,0.50312449,-85.852673,226.53667)"
       style="stroke-width:1.98758"><path
         sodipodi:type="star"
         style="fill:#33d17a;fill-opacity:0.262745;stroke:none;stroke-width:0.516771;stroke-linecap:round;stroke-linejoin:round"
         id="path3393"
         inkscape:flatsided="false"
         sodipodi:sides="5"
         sodipodi:cx="26.246899"
         sodipodi:cy="404.31696"
         sodipodi:r1="22.74733"
         sodipodi:r2="11.373665"
         sodipodi:arg1="1.0471976"
         sodipodi:arg2="1.6755161"
         inkscape:rounded="0"
         inkscape:randomized="0"
         d="m 37.620563,424.01672 -12.562536,-8.38841 -14.032064,5.59321 4.095813,-14.53985 -9.6555966,-11.61689 15.0938866,-0.59771 8.064577,-12.77283 5.232723,14.17044 14.639779,3.72284 -11.859887,9.35552 z"
         inkscape:transform-center-x="-0.73476278"
         inkscape:transform-center-y="-1.4614811" /><path
         sodipodi:type="star"
         style="fill:#33d17a;fill-opacity:0.262745;stroke:none;stroke-width:1.05299;stroke-linecap:round;stroke-linejoin:round"
         id="path3395"
         inkscape:flatsided="false"
         sodipodi:sides="5"
         sodipodi:cx="26.246899"
         sodipodi:cy="404.31696"
         sodipodi:r1="22.74733"
         sodipodi:r2="11.373665"
         sodipodi:arg1="1.0471976"
         sodipodi:arg2="1.6755161"
         inkscape:rounded="0"
         inkscape:randomized="0"
         d="m 37.620563,424.01672 -12.562536,-8.38841 -14.032064,5.59321 4.095813,-14.53985 -9.6555966,-11.61689 15.0938866,-0.59771 8.064577,-12.77283 5.232723,14.17044 14.639779,3.72284 -11.859887,9.35552 z"
         inkscape:transform-center-x="-0.36059466"
         inkscape:transform-center-y="-0.7172405"
         transform="matrix(0.49076391,0,0,0.49076391,13.365868,205.89279)" /><path
         style="fill:#33d17a;fill-opacity:0.262745;stroke:none;stroke-width:0.516771;stroke-linecap:round;stroke-linejoin:round"
         d="m 5.4661794,395.06477 10.5822916,4.71154 7.407535,-0.29332 3.957804,-6.26845 1.210833,-11.5203 -8.064577,12.77284 z"
         id="path3397" /><path
         style="fill:#33d17a;fill-opacity:0.262745;stroke:none;stroke-width:0.516771;stroke-linecap:round;stroke-linejoin:round"
         d="m 5.4661794,395.06477 10.5822916,4.71154 7.407535,-0.29332 3.957804,-6.26845 1.210833,-11.5203 -8.064577,12.77284 z"
         id="path3399" /><path
         style="fill:#071d10;fill-opacity:0.262745;stroke:none;stroke-width:0.516771;stroke-linecap:round;stroke-linejoin:round"
         d="m 25.058027,415.62832 0.605416,-5.76017 6.165238,4.11673 -0.48257,-7.39761 5.291148,2.35577 0.983302,15.07368 z"
         id="path3401" /></g><g
       id="g3422"
       transform="rotate(150,-122.42201,358.50263)"><rect
         style="fill:#33d17a;fill-opacity:0.261261;stroke:none;stroke-width:0.260001;stroke-linecap:round;stroke-linejoin:round"
         id="rect3412"
         width="10.548152"
         height="10.548152"
         x="-270.51773"
         y="309.58633"
         transform="rotate(-30)" /><rect
         style="fill:#57e389;fill-opacity:0.261261;stroke:none;stroke-width:0.26;stroke-linecap:round;stroke-linejoin:round"
         id="rect3414"
         width="5.0397959"
         height="5.0397959"
         x="-267.76355"
         y="312.34055"
         transform="rotate(-30)" /><path
         style="fill:#33d17a;fill-opacity:0.261261;stroke:none;stroke-width:0.26;stroke-linecap:round;stroke-linejoin:round"
         d="m -75.719791,404.37662 -3.762279,-1.0081 9.13497,-5.27407 -1.0081,3.76228 z"
         id="path3416" /><path
         style="fill:#33d17a;fill-opacity:0.261261;stroke:none;stroke-width:0.26;stroke-linecap:round;stroke-linejoin:round"
         d="m -75.719791,404.37662 -3.762279,-1.0081 9.13497,-5.27407 -1.0081,3.76228 z"
         id="path3418" /><path
         style="fill:#071d10;fill-opacity:0.262745;stroke:none;stroke-width:0.26;stroke-linecap:round;stroke-linejoin:round"
         d="m -74.207999,412.5035 1.008106,-3.76228 4.364591,-2.51989 3.762273,1.00808 z"
         id="path3420" /></g><g
       id="g3434"
       transform="matrix(-0.14270855,-0.53259548,0.53259548,-0.14270855,-307.80695,365.07297)"
       style="stroke-width:1.81362"><path
         sodipodi:type="star"
         style="fill:#33d17a;fill-opacity:0.262745;stroke:none;stroke-width:0.471541;stroke-linecap:round;stroke-linejoin:round"
         id="path3424"
         inkscape:flatsided="true"
         sodipodi:sides="6"
         sodipodi:cx="17.719566"
         sodipodi:cy="422.8085"
         sodipodi:r1="18.502127"
         sodipodi:r2="16.023312"
         sodipodi:arg1="0.52359878"
         sodipodi:arg2="1.0471976"
         inkscape:rounded="0"
         inkscape:randomized="0"
         d="m 33.742878,432.05957 -16.023312,9.25106 -16.0233114,-9.25106 0,-18.50213 16.0233114,-9.25106 16.023312,9.25106 z"
         inkscape:transform-center-y="-5.3267214e-06"
         transform="translate(-52.16858,10.190364)" /><path
         sodipodi:type="star"
         style="fill:#33d17a;fill-opacity:0.262745;stroke:none;stroke-width:0.945389;stroke-linecap:round;stroke-linejoin:round"
         id="path3426"
         inkscape:flatsided="true"
         sodipodi:sides="6"
         sodipodi:cx="17.719566"
         sodipodi:cy="422.8085"
         sodipodi:r1="18.502127"
         sodipodi:r2="16.023312"
         sodipodi:arg1="0.52359878"
         sodipodi:arg2="1.0471976"
         inkscape:rounded="0"
         inkscape:randomized="0"
         d="m 33.742878,432.05957 -16.023312,9.25106 -16.0233114,-9.25106 0,-18.50213 16.0233114,-9.25106 16.023312,9.25106 z"
         inkscape:transform-center-y="-3.7801643e-06"
         transform="matrix(0.49878022,0,0,0.49878022,-43.287183,222.11035)" /><path
         style="fill:#33d17a;fill-opacity:0.262745;stroke:none;stroke-width:0.471541;stroke-linecap:round;stroke-linejoin:round"
         d="m -50.472323,423.7478 8.031199,4.63682 7.99211,-4.61425 v -9.27362 z"
         id="path3428" /><path
         style="fill:#071d10;fill-opacity:0.262745;stroke:none;stroke-width:0.471541;stroke-linecap:round;stroke-linejoin:round"
         d="m -34.449014,451.50098 v -9.27362 l 7.992111,-4.61426 8.031201,4.63682 z"
         id="path3430" /><path
         style="fill:#33d17a;fill-opacity:0.262745;stroke:none;stroke-width:0.471541;stroke-linecap:round;stroke-linejoin:round"
         d="m -50.472323,423.7478 8.031199,4.63682 7.99211,-4.61425 v -9.27362 z"
         id="path3432" /></g><g
       id="g3446"
       transform="matrix(0.25156225,-0.43571859,-0.43571859,-0.25156225,12.567946,415.8522)"
       style="stroke-width:1.98758"><path
         sodipodi:type="star"
         style="fill:#33d17a;fill-opacity:0.262745;stroke:none;stroke-width:0.516771;stroke-linecap:round;stroke-linejoin:round"
         id="path3436"
         inkscape:flatsided="false"
         sodipodi:sides="5"
         sodipodi:cx="26.246899"
         sodipodi:cy="404.31696"
         sodipodi:r1="22.74733"
         sodipodi:r2="11.373665"
         sodipodi:arg1="1.0471976"
         sodipodi:arg2="1.6755161"
         inkscape:rounded="0"
         inkscape:randomized="0"
         d="m 37.620563,424.01672 -12.562536,-8.38841 -14.032064,5.59321 4.095813,-14.53985 -9.6555966,-11.61689 15.0938866,-0.59771 8.064577,-12.77283 5.232723,14.17044 14.639779,3.72284 -11.859887,9.35552 z"
         inkscape:transform-center-x="-0.73476278"
         inkscape:transform-center-y="-1.4614811" /><path
         sodipodi:type="star"
         style="fill:#33d17a;fill-opacity:0.262745;stroke:none;stroke-width:1.05299;stroke-linecap:round;stroke-linejoin:round"
         id="path3438"
         inkscape:flatsided="false"
         sodipodi:sides="5"
         sodipodi:cx="26.246899"
         sodipodi:cy="404.31696"
         sodipodi:r1="22.74733"
         sodipodi:r2="11.373665"
         sodipodi:arg1="1.0471976"
         sodipodi:arg2="1.6755161"
         inkscape:rounded="0"
         inkscape:randomized="0"
         d="m 37.620563,424.01672 -12.562536,-8.38841 -14.032064,5.59321 4.095813,-14.53985 -9.6555966,-11.61689 15.0938866,-0.59771 8.064577,-12.77283 5.232723,14.17044 14.639779,3.72284 -11.859887,9.35552 z"
         inkscape:transform-center-x="-0.36059466"
         inkscape:transform-center-y="-0.7172405"
         transform="matrix(0.49076391,0,0,0.49076391,13.365868,205.89279)" /><path
         style="fill:#33d17a;fill-opacity:0.262745;stroke:none;stroke-width:0.516771;stroke-linecap:round;stroke-linejoin:round"
         d="m 5.4661794,395.06477 10.5822916,4.71154 7.407535,-0.29332 3.957804,-6.26845 1.210833,-11.5203 -8.064577,12.77284 z"
         id="path3440" /><path
         style="fill:#33d17a;fill-opacity:0.262745;stroke:none;stroke-width:0.516771;stroke-linecap:round;stroke-linejoin:round"
         d="m 5.4661794,395.06477 10.5822916,4.71154 7.407535,-0.29332 3.957804,-6.26845 1.210833,-11.5203 -8.064577,12.77284 z"
         id="path3442" /><path
         style="fill:#071d10;fill-opacity:0.262745;stroke:none;stroke-width:0.516771;stroke-linecap:round;stroke-linejoin:round"
         d="m 25.058027,415.62832 0.605416,-5.76017 6.165238,4.11673 -0.48257,-7.39761 5.291148,2.35577 0.983302,15.07368 z"
         id="path3444" /></g><g
       id="g3468"
       transform="matrix(0.74440851,-0.19946366,-0.19946366,-0.74440851,20.309354,603.53255)"
       style="stroke-width:1.29757"><rect
         style="fill:#33d17a;fill-opacity:0.261261;stroke:none;stroke-width:0.337371;stroke-linecap:round;stroke-linejoin:round"
         id="rect3458"
         width="10.548152"
         height="10.548152"
         x="-270.51773"
         y="309.58633"
         transform="rotate(-30)" /><rect
         style="fill:#57e389;fill-opacity:0.261261;stroke:none;stroke-width:0.337369;stroke-linecap:round;stroke-linejoin:round"
         id="rect3460"
         width="5.0397959"
         height="5.0397959"
         x="-267.76355"
         y="312.34055"
         transform="rotate(-30)" /><path
         style="fill:#33d17a;fill-opacity:0.261261;stroke:none;stroke-width:0.337369;stroke-linecap:round;stroke-linejoin:round"
         d="m -75.719791,404.37662 -3.762279,-1.0081 9.13497,-5.27407 -1.0081,3.76228 z"
         id="path3462" /><path
         style="fill:#33d17a;fill-opacity:0.261261;stroke:none;stroke-width:0.337369;stroke-linecap:round;stroke-linejoin:round"
         d="m -75.719791,404.37662 -3.762279,-1.0081 9.13497,-5.27407 -1.0081,3.76228 z"
         id="path3464" /><path
         style="fill:#071d10;fill-opacity:0.262745;stroke:none;stroke-width:0.337369;stroke-linecap:round;stroke-linejoin:round"
         d="m -74.207999,412.5035 1.008106,-3.76228 4.364591,-2.51989 3.762273,1.00808 z"
         id="path3466" /></g></g></svg>
