<?xml version="1.0" encoding="UTF-8" standalone="no"?>
<!-- Created with Inkscape (http://www.inkscape.org/) -->

<svg
   width="251.14203mm"
   height="146.57962mm"
   viewBox="0 0 251.14203 146.57962"
   version="1.1"
   id="svg5"
   xml:space="preserve"
   inkscape:version="1.2.2 (b0a8486541, 2022-12-01)"
   sodipodi:docname="shard.svg"
   xmlns:inkscape="http://www.inkscape.org/namespaces/inkscape"
   xmlns:sodipodi="http://sodipodi.sourceforge.net/DTD/sodipodi-0.dtd"
   xmlns:xlink="http://www.w3.org/1999/xlink"
   xmlns="http://www.w3.org/2000/svg"
   xmlns:svg="http://www.w3.org/2000/svg"><sodipodi:namedview
     id="namedview7"
     pagecolor="#505050"
     bordercolor="#ffffff"
     borderopacity="1"
     inkscape:showpageshadow="0"
     inkscape:pageopacity="0"
     inkscape:pagecheckerboard="1"
     inkscape:deskcolor="#505050"
     inkscape:document-units="mm"
     showgrid="false"
     inkscape:zoom="0.25961631"
     inkscape:cx="4828.279"
     inkscape:cy="-3299.0993"
     inkscape:window-width="1920"
     inkscape:window-height="1039"
     inkscape:window-x="0"
     inkscape:window-y="0"
     inkscape:window-maximized="1"
     inkscape:current-layer="layer1"
     showguides="false" /><defs
     id="defs2"><linearGradient
       inkscape:collect="always"
       id="linearGradient11355"><stop
         style="stop-color:#26a269;stop-opacity:1"
         offset="0"
         id="stop11351" /><stop
         style="stop-color:#2ec27e;stop-opacity:1"
         offset="1"
         id="stop11353" /></linearGradient><linearGradient
       inkscape:collect="always"
       id="linearGradient10613"><stop
         style="stop-color:#2ec27e;stop-opacity:1"
         offset="0"
         id="stop10609" /><stop
         style="stop-color:#33d17a;stop-opacity:1"
         offset="1"
         id="stop10611" /></linearGradient><linearGradient
       inkscape:collect="always"
       id="linearGradient9813"><stop
         style="stop-color:#2ec27e;stop-opacity:1"
         offset="0"
         id="stop9809" /><stop
         style="stop-color:#ffffff;stop-opacity:0;"
         offset="1"
         id="stop9811" /></linearGradient><linearGradient
       inkscape:collect="always"
       id="linearGradient9716"><stop
         style="stop-color:#2ec27e;stop-opacity:1"
         offset="0"
         id="stop9712" /><stop
         style="stop-color:#26a269;stop-opacity:1;"
         offset="1"
         id="stop9714" /></linearGradient><clipPath
       id="clip0_105_23"><rect
         width="1920"
         height="1200"
         fill="#ffffff"
         id="rect689"
         x="0"
         y="0" /></clipPath><clipPath
       clipPathUnits="userSpaceOnUse"
       id="clipPath2287"><rect
         style="fill:#f1f9f1;fill-opacity:1;stroke:none;stroke-width:0.999998;stroke-linecap:round;stroke-linejoin:round"
         id="rect2289"
         width="252.68079"
         height="148.65387"
         x="1459.0393"
         y="-886.38641"
         ry="5.4112439" /></clipPath><filter
       inkscape:collect="always"
       style="color-interpolation-filters:sRGB"
       id="filter7052"
       x="-0.26928887"
       y="-0.27089113"
       width="1.5385777"
       height="1.5417821"><feGaussianBlur
         inkscape:collect="always"
         stdDeviation="10.549193"
         id="feGaussianBlur7054" /></filter><linearGradient
       inkscape:collect="always"
       xlink:href="#linearGradient9813"
       id="linearGradient9807"
       x1="2041.1653"
       y1="-654.39105"
       x2="2041.1653"
       y2="-667.83313"
       gradientUnits="userSpaceOnUse"
       gradientTransform="translate(-324.64932,-4.8767066)" /><linearGradient
       inkscape:collect="always"
       xlink:href="#linearGradient10613"
       id="linearGradient10615"
       x1="2096.4094"
       y1="-659.3454"
       x2="2046.4207"
       y2="-659.3454"
       gradientUnits="userSpaceOnUse" /><linearGradient
       inkscape:collect="always"
       xlink:href="#linearGradient11355"
       id="linearGradient11349"
       x1="1585.6298"
       y1="-719.05725"
       x2="1585.6298"
       y2="-660.50696"
       gradientUnits="userSpaceOnUse" /><linearGradient
       inkscape:collect="always"
       xlink:href="#linearGradient9716"
       id="linearGradient12879"
       x1="1956.2194"
       y1="-655.03192"
       x2="2092.4995"
       y2="-655.55408"
       gradientUnits="userSpaceOnUse" /><linearGradient
       inkscape:collect="always"
       xlink:href="#linearGradient9716"
       id="linearGradient12881"
       gradientUnits="userSpaceOnUse"
       x1="1956.2194"
       y1="-655.03192"
       x2="2092.4995"
       y2="-655.55408" /><linearGradient
       inkscape:collect="always"
       xlink:href="#linearGradient9716"
       id="linearGradient12883"
       gradientUnits="userSpaceOnUse"
       x1="1956.2194"
       y1="-655.03192"
       x2="2092.4995"
       y2="-655.55408" /></defs><g
     inkscape:label="Layer 1"
     inkscape:groupmode="layer"
     id="layer1"
     transform="translate(-523.33223,110.79252)"><g
       id="g17751"
       inkscape:export-filename="g17751.svg"
       inkscape:export-xdpi="96"
       inkscape:export-ydpi="96"
       transform="matrix(0.52386811,0,0,0.52386811,-199.59843,376.04208)"
       style="stroke-width:1.90888"><path
         id="path2343"
         style="fill:#33d17a;fill-opacity:0.513513;stroke-width:1.90888;stroke-linecap:round;stroke-linejoin:round"
         d="m 1558.7959,-929.30033 c -25.6012,3.2637 -47.1334,20.00685 -63.4958,39.05568 -21.3585,18.76065 -52.4666,23.25453 -79.4018,16.0516 -23.7709,-1.22383 -43.2895,26.97971 -33.1855,48.70481 6.6926,17.35522 23.2409,28.39117 39.8018,35.20652 11.5428,5.86872 22.4117,16.8543 22.3383,30.59322 -1.0325,20.23098 -19.1485,35.14508 -19.1148,55.62052 -0.6881,15.63505 12.9177,29.46479 28.1776,30.86158 16.7389,2.79881 32.7275,-4.71505 47.5289,-11.52302 13.8764,-5.89972 29.6147,-9.19193 44.4377,-4.96095 35.0197,7.49266 63.2979,33.0212 98.8255,38.93841 23.733,4.4269 50.2273,-2.95865 66.0435,-21.76292 8.1892,-9.07551 12.4901,-20.8606 20.1036,-30.30911 8.5164,-9.0674 21.9601,-12.57758 33.9369,-9.57199 21.204,3.05403 41.2258,14.42895 63.1249,11.92659 18.9319,-1.3312 33.6649,-20.64627 31.1983,-39.23012 -1.097,-14.12631 -10.5748,-25.57465 -20.2586,-35.11443 -10.8982,-11.33724 -24.4373,-21.90594 -28.5904,-37.80857 -5.5679,-24.07533 7.8204,-47.79975 3.3624,-71.95799 -2.6693,-17.94738 -14.3358,-35.47249 -32.0195,-41.39581 -16.6501,-5.62167 -34.8393,0.50059 -48.5857,10.35701 -9.7455,6.86553 -17.8078,15.84736 -27.9642,22.18293 -14.3413,9.77735 -32.3886,16.52359 -49.8075,12.04794 -16.4844,-3.83731 -29.9364,-14.71886 -42.7813,-25.14306 -15.5242,-11.85484 -33.411,-23.1029 -53.6743,-22.76884 z"
         sodipodi:nodetypes="zzzzzzzzzzzzzzzzz" /><g
         id="g1057"
         style="fill:#f1f9f1;fill-opacity:1;stroke-width:1.90888"><rect
           style="fill:#f1f9f1;fill-opacity:1;stroke:none;stroke-width:1.90888;stroke-linecap:round;stroke-linejoin:round"
           id="rect826"
           width="269.79129"
           height="157.92548"
           x="1450.7341"
           y="-886.38641" /><rect
           style="fill:#f1f9f1;fill-opacity:1;stroke:none;stroke-width:1.90888;stroke-linecap:round;stroke-linejoin:round"
           id="rect1050"
           width="269.79129"
           height="18.807388"
           x="-1720.5254"
           y="-894.69177"
           ry="9.4036942"
           transform="scale(-1,1)"
           rx="9.4036942" /></g><g
         id="g2281"
         clip-path="url(#clipPath2287)"
         style="stroke-width:1.90888"><g
           clip-path="url(#clip0_105_23)"
           id="g687"
           transform="matrix(0.13160458,0,0,0.13160458,1459.0394,-886.38642)"
           style="stroke-width:3.83768"><path
             d="M 1920,0 H 0 v 1200 h 1920 z"
             fill="#072214"
             id="path653"
             style="stroke-width:7.71545" /><path
             d="m 1920,1075.5 c -62.4,-87.3 -124.8,-174.7 -203.4,-184.4 -78.5,-9.8 -173.2,58 -256.1,63 -82.9,5 -153.9,-52.7 -211,-113.3 C 1192.3,780.3 1149.1,717 1103,651.5 1056.8,586.1 1007.7,518.7 1000.1,443 992.5,367.3 1026.5,283.5 1007.5,208.3 988.5,133.1 916.5,66.5 844.5,0 H 1920 Z"
             fill="#082c1b"
             id="path655"
             style="stroke-width:7.71545" /><path
             d="m 1920,941 c -54.6,-76.4 -109.2,-152.8 -178,-161.3 -68.7,-8.5 -151.5,50.8 -224,55.2 -72.6,4.3 -134.7,-46.2 -184.7,-99.2 -50,-52.9 -87.8,-108.4 -128.2,-165.6 -40.4,-57.2 -83.4,-116.3 -90,-182.5 -6.6,-66.2 23.1,-139.6 6.4,-205.4 C 1104.9,116.4 1041.9,58.2 979,0 h 941 z"
             fill="#0e4128"
             id="path657"
             style="stroke-width:7.71545" /><path
             d="m 1920,806.6 c -46.8,-65.5 -93.6,-131 -152.5,-138.3 -58.9,-7.3 -130,43.5 -192.1,47.3 -62.2,3.8 -115.5,-39.6 -158.3,-85 -42.9,-45.4 -75.2,-92.9 -109.9,-141.9 -34.6,-49.1 -71.4,-99.7 -77.1,-156.5 -5.7,-56.7 19.8,-119.6 5.5,-176 C 1221.3,99.8 1167.4,49.9 1113.4,0 H 1920 Z"
             fill="#125836"
             id="path659"
             style="stroke-width:7.71545" /><path
             d="m 1920,672.2 c -39,-54.6 -78,-109.2 -127.1,-115.3 -49.1,-6.1 -108.3,36.3 -160.1,39.4 -51.8,3.2 -96.2,-32.9 -131.9,-70.8 -35.7,-37.8 -62.7,-77.4 -91.5,-118.3 -28.9,-40.9 -59.6,-83 -64.3,-130.3 -4.8,-47.3 16.4,-99.7 4.6,-146.7 C 1337.8,83.2 1292.8,41.6 1247.8,0 H 1920 Z"
             fill="#187044"
             id="path661"
             style="stroke-width:7.71545" /><path
             d="m 1920,537.7 c -31.2,-43.6 -62.4,-87.3 -101.7,-92.2 -39.3,-4.8 -86.6,29.1 -128,31.6 -41.5,2.5 -77,-26.4 -105.6,-56.7 -28.5,-30.3 -50.1,-61.9 -73.2,-94.6 -23.1,-32.7 -47.7,-66.5 -51.4,-104.3 -3.8,-37.8 13.1,-79.8 3.6,-117.4 C 1454.2,66.5 1418.2,33.3 1382.3,0 H 1920 Z"
             fill="#268150"
             id="path663"
             style="stroke-width:7.71545" /><path
             d="m 1920,403.3 c -23.4,-32.7 -46.8,-65.5 -76.3,-69.1 -29.4,-3.7 -64.9,21.7 -96,23.6 -31.1,1.9 -57.7,-19.8 -79.2,-42.5 -21.4,-22.7 -37.6,-46.4 -54.9,-71 -17.3,-24.5 -35.7,-49.8 -38.6,-78.2 -2.8,-28.4 9.9,-59.8 2.8,-88 C 1570.7,49.9 1543.7,25 1516.7,0 H 1920 Z"
             fill="#2a9d60"
             id="path665"
             style="stroke-width:7.71545" /><path
             d="m 1920,268.9 c -15.6,-21.9 -31.2,-43.7 -50.8,-46.1 -19.7,-2.5 -43.4,14.5 -64.1,15.7 -20.7,1.3 -38.5,-13.2 -52.7,-28.3 -14.3,-15.1 -25.1,-31 -36.7,-47.3 -11.5,-16.4 -23.8,-33.2 -25.7,-52.2 -1.9,-18.9 6.6,-39.8 1.9,-58.6 C 1687.1,33.3 1669.1,16.6 1651.1,0 H 1920 Z"
             fill="#2eb971"
             id="path667"
             style="stroke-width:7.71545" /><path
             d="m 1920,134.4 c -7.8,-10.9 -15.6,-21.8 -25.4,-23 -9.8,-1.2 -21.7,7.2 -32,7.9 -10.4,0.6 -19.3,-6.6 -26.4,-14.2 -7.2,-7.6 -12.6,-15.5 -18.3,-23.7 -5.8,-8.1 -11.9,-16.6 -12.9,-26 -0.9,-9.5 3.3,-20 0.9,-29.4 -2.3,-9.4 -11.3,-17.7 -20.3,-26 H 1920 Z"
             fill="#30c879"
             id="path669"
             style="stroke-width:7.71545" /><path
             d="m 0,124.5 c 67.1,56.1 134.3,112.2 219,116.2 84.6,3.9 186.9,-44.2 247.6,-9.7 60.8,34.6 80.1,151.8 136.3,213 56.2,61.2 149.4,66.4 202.4,113.8 53,47.4 65.8,137.1 85.8,213.1 19.9,76 47,138.4 79,207.7 31.9,69.2 68.6,145.3 105.4,221.4 H 0 Z"
             fill="#082c1b"
             id="path671"
             style="stroke-width:7.71545" /><path
             d="m 0,259 c 58.7,49 117.5,98.1 191.6,101.6 74.1,3.5 163.5,-38.7 216.7,-8.4 53.2,30.2 70.1,132.7 119.3,186.3 49.1,53.5 130.7,58.1 177,99.6 46.4,41.5 57.6,119.9 75.1,186.4 17.4,66.6 41.2,121.2 69.1,181.8 27.9,60.6 60.1,127.1 92.2,193.7 H 0 Z"
             fill="#0e4128"
             id="path673-3"
             style="stroke-width:7.71545" /><path
             d="m 0,393.4 c 50.4,42.1 100.7,84.1 164.2,87.1 63.5,3 140.2,-33.1 185.8,-7.2 45.5,25.9 60,113.8 102.2,159.7 42.2,45.9 112,49.8 151.8,85.4 39.7,35.5 49.3,102.7 64.3,159.8 15,57 35.3,103.8 59.2,155.7 24,52 51.5,109 79.1,166.1 H 0 Z"
             fill="#125836"
             id="path675"
             style="stroke-width:7.71545" /><path
             d="m 0,527.8 c 42,35.1 83.9,70.1 136.9,72.6 52.9,2.5 116.8,-27.6 154.7,-6 38,21.6 50.1,94.8 85.2,133.1 35.2,38.2 93.4,41.5 126.5,71.1 33.1,29.7 41.1,85.7 53.6,133.2 12.5,47.5 29.4,86.5 49.4,129.8 19.9,43.3 42.9,90.9 65.9,138.4 H 0 Z"
             fill="#187044"
             id="path677"
             style="stroke-width:7.71545" /><path
             d="m 0,662.3 c 33.6,28 67.1,56 109.5,58 42.3,2 93.4,-22 123.8,-4.8 30.4,17.3 40,75.9 68.2,106.5 28.1,30.6 74.6,33.2 101.1,56.9 26.5,23.7 32.9,68.5 42.9,106.5 10,38.1 23.6,69.3 39.5,103.9 16,34.6 34.4,72.7 52.7,110.7 H 0 Z"
             fill="#268150"
             id="path679"
             style="stroke-width:7.71545" /><path
             d="m 0,796.7 c 25.2,21 50.4,42.1 82.1,43.6 31.8,1.4 70.1,-16.6 92.9,-3.7 22.8,13 30,56.9 51.1,79.9 21.1,22.9 56,24.9 75.9,42.7 19.9,17.8 24.7,51.4 32.1,79.9 7.5,28.5 17.7,51.9 29.7,77.9 11.9,25.9 25.7,54.5 39.5,83 H 0 Z"
             fill="#2a9d60"
             id="path681"
             style="stroke-width:7.71545" /><path
             d="m 0,931.1 c 16.8,14.1 33.6,28.1 54.7,29.1 21.2,1 46.8,-11.1 62,-2.4 15.1,8.6 20,37.9 34,53.2 14.1,15.3 37.4,16.6 50.6,28.5 13.3,11.8 16.5,34.2 21.5,53.2 5,19 11.7,34.6 19.7,51.9 8,17.4 17.2,36.4 26.4,55.4 H 0 Z"
             fill="#2eb971"
             id="path683"
             style="stroke-width:7.71545" /><path
             d="m 0,1065.6 c 8.4,7 16.8,14 27.4,14.5 10.6,0.5 23.3,-5.5 30.9,-1.2 7.6,4.3 10,18.9 17.1,26.6 7,7.6 18.6,8.3 25.3,14.2 6.6,6 8.2,17.2 10.7,26.7 2.5,9.5 5.9,17.3 9.9,25.9 3.9,8.7 8.5,18.2 13.1,27.7 H 0 Z"
             fill="#30c879"
             id="path685"
             style="stroke-width:7.71545" /></g><rect
           style="fill:#000000;stroke:none;stroke-width:1.90888;stroke-linecap:round;stroke-linejoin:round"
           id="rect718"
           width="252.6808"
           height="8.8438215"
           x="1459.0393"
           y="-886.38641" /></g><rect
         style="fill:url(#linearGradient11349);fill-opacity:1;stroke:none;stroke-width:1.90888;stroke-linecap:round;stroke-linejoin:round"
         id="rect1046"
         width="81.754715"
         height="58.550266"
         x="1544.7524"
         y="-719.05725"
         ry="8.6043053"
         rx="8.6043053" /><g
         id="g1061"
         style="fill:#2ec27e;stroke-width:1.90888"><rect
           style="fill:#2ec27e;stroke:none;stroke-width:1.90888;stroke-linecap:round;stroke-linejoin:round"
           id="rect992"
           width="269.79129"
           height="18.807388"
           x="1450.7341"
           y="-728.46094"
           ry="9.4036942"
           rx="9.4036942" /><rect
           style="fill:#2ec27e;stroke:none;stroke-width:1.90888;stroke-linecap:round;stroke-linejoin:round"
           id="rect1048"
           width="269.79126"
           height="9.4036865"
           x="1450.7341"
           y="-728.46094"
           ry="0" /></g><rect
         style="fill:#0e3b26;fill-opacity:0.497436;stroke:none;stroke-width:1.67826;stroke-linecap:round;stroke-linejoin:round;filter:url(#filter7052)"
         id="rect6981"
         width="94.018234"
         height="93.462143"
         x="1626.5072"
         y="-803.11572"
         ry="5.5799947"
         transform="matrix(1.1764378,0,0,1.0996799,-280.24433,77.701513)"
         rx="5.5799947" /><rect
         style="fill:#e3fbe9;fill-opacity:1;stroke:none;stroke-width:1.90886;stroke-linecap:round;stroke-linejoin:round"
         id="rect4590"
         width="204.66805"
         height="128.19374"
         x="1643.0443"
         y="-792.41583"
         ry="7.2989435"
         rx="7.2989435" /><g
         id="g4588"
         clip-path="url(#clipPath2287)"
         transform="matrix(0.76202908,0,0,0.76202908,537.27292,-110.90464)"
         style="stroke-width:2.505"><g
           clip-path="url(#clip0_105_23)"
           id="g4584"
           transform="matrix(0.13160458,0,0,0.13160458,1459.0394,-886.38642)"
           style="stroke-width:5.03613"><path
             d="M 1920,0 H 0 v 1200 h 1920 z"
             fill="#072214"
             id="path4550"
             style="stroke-width:10.1249" /><path
             d="m 1920,1075.5 c -62.4,-87.3 -124.8,-174.7 -203.4,-184.4 -78.5,-9.8 -173.2,58 -256.1,63 -82.9,5 -153.9,-52.7 -211,-113.3 C 1192.3,780.3 1149.1,717 1103,651.5 1056.8,586.1 1007.7,518.7 1000.1,443 992.5,367.3 1026.5,283.5 1007.5,208.3 988.5,133.1 916.5,66.5 844.5,0 H 1920 Z"
             fill="#082c1b"
             id="path4552"
             style="stroke-width:10.1249" /><path
             d="m 1920,941 c -54.6,-76.4 -109.2,-152.8 -178,-161.3 -68.7,-8.5 -151.5,50.8 -224,55.2 -72.6,4.3 -134.7,-46.2 -184.7,-99.2 -50,-52.9 -87.8,-108.4 -128.2,-165.6 -40.4,-57.2 -83.4,-116.3 -90,-182.5 -6.6,-66.2 23.1,-139.6 6.4,-205.4 C 1104.9,116.4 1041.9,58.2 979,0 h 941 z"
             fill="#0e4128"
             id="path4554"
             style="stroke-width:10.1249" /><path
             d="m 1920,806.6 c -46.8,-65.5 -93.6,-131 -152.5,-138.3 -58.9,-7.3 -130,43.5 -192.1,47.3 -62.2,3.8 -115.5,-39.6 -158.3,-85 -42.9,-45.4 -75.2,-92.9 -109.9,-141.9 -34.6,-49.1 -71.4,-99.7 -77.1,-156.5 -5.7,-56.7 19.8,-119.6 5.5,-176 C 1221.3,99.8 1167.4,49.9 1113.4,0 H 1920 Z"
             fill="#125836"
             id="path4556"
             style="stroke-width:10.1249" /><path
             d="m 1920,672.2 c -39,-54.6 -78,-109.2 -127.1,-115.3 -49.1,-6.1 -108.3,36.3 -160.1,39.4 -51.8,3.2 -96.2,-32.9 -131.9,-70.8 -35.7,-37.8 -62.7,-77.4 -91.5,-118.3 -28.9,-40.9 -59.6,-83 -64.3,-130.3 -4.8,-47.3 16.4,-99.7 4.6,-146.7 C 1337.8,83.2 1292.8,41.6 1247.8,0 H 1920 Z"
             fill="#187044"
             id="path4558"
             style="stroke-width:10.1249" /><path
             d="m 1920,537.7 c -31.2,-43.6 -62.4,-87.3 -101.7,-92.2 -39.3,-4.8 -86.6,29.1 -128,31.6 -41.5,2.5 -77,-26.4 -105.6,-56.7 -28.5,-30.3 -50.1,-61.9 -73.2,-94.6 -23.1,-32.7 -47.7,-66.5 -51.4,-104.3 -3.8,-37.8 13.1,-79.8 3.6,-117.4 C 1454.2,66.5 1418.2,33.3 1382.3,0 H 1920 Z"
             fill="#268150"
             id="path4560"
             style="stroke-width:10.1249" /><path
             d="m 1920,403.3 c -23.4,-32.7 -46.8,-65.5 -76.3,-69.1 -29.4,-3.7 -64.9,21.7 -96,23.6 -31.1,1.9 -57.7,-19.8 -79.2,-42.5 -21.4,-22.7 -37.6,-46.4 -54.9,-71 -17.3,-24.5 -35.7,-49.8 -38.6,-78.2 -2.8,-28.4 9.9,-59.8 2.8,-88 C 1570.7,49.9 1543.7,25 1516.7,0 H 1920 Z"
             fill="#2a9d60"
             id="path4562"
             style="stroke-width:10.1249" /><path
             d="m 1920,268.9 c -15.6,-21.9 -31.2,-43.7 -50.8,-46.1 -19.7,-2.5 -43.4,14.5 -64.1,15.7 -20.7,1.3 -38.5,-13.2 -52.7,-28.3 -14.3,-15.1 -25.1,-31 -36.7,-47.3 -11.5,-16.4 -23.8,-33.2 -25.7,-52.2 -1.9,-18.9 6.6,-39.8 1.9,-58.6 C 1687.1,33.3 1669.1,16.6 1651.1,0 H 1920 Z"
             fill="#2eb971"
             id="path4564"
             style="stroke-width:10.1249" /><path
             d="m 1920,134.4 c -7.8,-10.9 -15.6,-21.8 -25.4,-23 -9.8,-1.2 -21.7,7.2 -32,7.9 -10.4,0.6 -19.3,-6.6 -26.4,-14.2 -7.2,-7.6 -12.6,-15.5 -18.3,-23.7 -5.8,-8.1 -11.9,-16.6 -12.9,-26 -0.9,-9.5 3.3,-20 0.9,-29.4 -2.3,-9.4 -11.3,-17.7 -20.3,-26 H 1920 Z"
             fill="#30c879"
             id="path4566"
             style="stroke-width:10.1249" /><path
             d="m 0,124.5 c 67.1,56.1 134.3,112.2 219,116.2 84.6,3.9 186.9,-44.2 247.6,-9.7 60.8,34.6 80.1,151.8 136.3,213 56.2,61.2 149.4,66.4 202.4,113.8 53,47.4 65.8,137.1 85.8,213.1 19.9,76 47,138.4 79,207.7 31.9,69.2 68.6,145.3 105.4,221.4 H 0 Z"
             fill="#082c1b"
             id="path4568"
             style="stroke-width:10.1249" /><path
             d="m 0,259 c 58.7,49 117.5,98.1 191.6,101.6 74.1,3.5 163.5,-38.7 216.7,-8.4 53.2,30.2 70.1,132.7 119.3,186.3 49.1,53.5 130.7,58.1 177,99.6 46.4,41.5 57.6,119.9 75.1,186.4 17.4,66.6 41.2,121.2 69.1,181.8 27.9,60.6 60.1,127.1 92.2,193.7 H 0 Z"
             fill="#0e4128"
             id="path4570"
             style="stroke-width:10.1249" /><path
             d="m 0,393.4 c 50.4,42.1 100.7,84.1 164.2,87.1 63.5,3 140.2,-33.1 185.8,-7.2 45.5,25.9 60,113.8 102.2,159.7 42.2,45.9 112,49.8 151.8,85.4 39.7,35.5 49.3,102.7 64.3,159.8 15,57 35.3,103.8 59.2,155.7 24,52 51.5,109 79.1,166.1 H 0 Z"
             fill="#125836"
             id="path4572"
             style="stroke-width:10.1249" /><path
             d="m 0,527.8 c 42,35.1 83.9,70.1 136.9,72.6 52.9,2.5 116.8,-27.6 154.7,-6 38,21.6 50.1,94.8 85.2,133.1 35.2,38.2 93.4,41.5 126.5,71.1 33.1,29.7 41.1,85.7 53.6,133.2 12.5,47.5 29.4,86.5 49.4,129.8 19.9,43.3 42.9,90.9 65.9,138.4 H 0 Z"
             fill="#187044"
             id="path4574"
             style="stroke-width:10.1249" /><path
             d="m 0,662.3 c 33.6,28 67.1,56 109.5,58 42.3,2 93.4,-22 123.8,-4.8 30.4,17.3 40,75.9 68.2,106.5 28.1,30.6 74.6,33.2 101.1,56.9 26.5,23.7 32.9,68.5 42.9,106.5 10,38.1 23.6,69.3 39.5,103.9 16,34.6 34.4,72.7 52.7,110.7 H 0 Z"
             fill="#268150"
             id="path4576"
             style="stroke-width:10.1249" /><path
             d="m 0,796.7 c 25.2,21 50.4,42.1 82.1,43.6 31.8,1.4 70.1,-16.6 92.9,-3.7 22.8,13 30,56.9 51.1,79.9 21.1,22.9 56,24.9 75.9,42.7 19.9,17.8 24.7,51.4 32.1,79.9 7.5,28.5 17.7,51.9 29.7,77.9 11.9,25.9 25.7,54.5 39.5,83 H 0 Z"
             fill="#2a9d60"
             id="path4578"
             style="stroke-width:10.1249" /><path
             d="m 0,931.1 c 16.8,14.1 33.6,28.1 54.7,29.1 21.2,1 46.8,-11.1 62,-2.4 15.1,8.6 20,37.9 34,53.2 14.1,15.3 37.4,16.6 50.6,28.5 13.3,11.8 16.5,34.2 21.5,53.2 5,19 11.7,34.6 19.7,51.9 8,17.4 17.2,36.4 26.4,55.4 H 0 Z"
             fill="#2eb971"
             id="path4580"
             style="stroke-width:10.1249" /><path
             d="m 0,1065.6 c 8.4,7 16.8,14 27.4,14.5 10.6,0.5 23.3,-5.5 30.9,-1.2 7.6,4.3 10,18.9 17.1,26.6 7,7.6 18.6,8.3 25.3,14.2 6.6,6 8.2,17.2 10.7,26.7 2.5,9.5 5.9,17.3 9.9,25.9 3.9,8.7 8.5,18.2 13.1,27.7 H 0 Z"
             fill="#30c879"
             id="path4582"
             style="stroke-width:10.1249" /></g><rect
           style="fill:#000000;stroke:none;stroke-width:2.505;stroke-linecap:round;stroke-linejoin:round"
           id="rect4586"
           width="252.6808"
           height="8.8438215"
           x="1459.0393"
           y="-886.38641" /></g><g
         id="g12877"
         style="fill:url(#linearGradient12879);fill-opacity:1;stroke-width:1.90888"
         transform="translate(-324.64932,-4.8767066)"><rect
           style="fill:url(#linearGradient12881);fill-opacity:1;stroke:none;stroke-width:1.90888;stroke-linecap:round;stroke-linejoin:round"
           id="rect4729"
           width="225.93909"
           height="8.117692"
           x="1957.0581"
           y="-659.3454"
           ry="3.4711666"
           rx="3.4711666" /><rect
           style="fill:url(#linearGradient12883);fill-opacity:1;stroke:none;stroke-width:1.90888;stroke-linecap:round;stroke-linejoin:round"
           id="rect4991"
           width="225.93901"
           height="4.9543376"
           x="1957.0581"
           y="-659.3454" /></g><g
         id="g10607"
         style="fill:url(#linearGradient10615);fill-opacity:1;stroke-width:1.90888"
         transform="translate(-324.64932,-4.8767066)"><rect
           style="fill:#2ec27e;fill-opacity:1;stroke:none;stroke-width:1.90887;stroke-linecap:round;stroke-linejoin:round"
           id="rect6064"
           width="49.988651"
           height="3.5129972"
           x="2046.4207"
           y="-659.3454"
           ry="1.1616269"
           rx="1.1616269" /><rect
           style="fill:#2ec27e;fill-opacity:1;stroke:none;stroke-width:1.90888;stroke-linecap:round;stroke-linejoin:round"
           id="rect6844"
           width="49.988655"
           height="2.4771729"
           x="2046.4207"
           y="-659.3454" /></g><rect
         style="fill:#e3fbe9;fill-opacity:1;stroke:none;stroke-width:1.90888;stroke-linecap:round;stroke-linejoin:round"
         id="rect7108"
         width="204.66797"
         height="7.8639526"
         x="1643.0443"
         y="-672.08606" /><rect
         style="fill:url(#linearGradient9807);fill-opacity:1;stroke:none;stroke-width:1.90888;stroke-linecap:round;stroke-linejoin:round"
         id="rect9650"
         width="204.66797"
         height="3.9319761"
         x="1643.0443"
         y="-668.15405" /></g></g></svg>
